<svg width="43" height="43" viewBox="0 0 43 43" fill="none" xmlns="http://www.w3.org/2000/svg">
<circle cx="21.5" cy="21.5" r="21.5" fill="#2563EB"/>
<path d="M29.9696 27.3633H32.5757C33.3575 27.3633 33.8787 26.8421 33.8787 26.0603V22.1512C33.8787 20.9785 32.9666 19.936 31.9242 19.6754C29.5787 19.0239 26.0605 18.2421 26.0605 18.2421C26.0605 18.2421 24.3666 16.4179 23.1939 15.2451C22.5424 14.7239 21.7605 14.333 20.8484 14.333H11.7272C10.9454 14.333 10.2939 14.8542 9.90296 15.5057L8.07872 19.2845C7.90617 19.7878 7.81812 20.3161 7.81812 20.8482V26.0603C7.81812 26.8421 8.33933 27.3633 9.12115 27.3633H11.7272" stroke="white" stroke-width="2" stroke-linecap="round" stroke-linejoin="round"/>
<path d="M14.3334 29.9699C15.7726 29.9699 16.9394 28.8032 16.9394 27.3639C16.9394 25.9246 15.7726 24.7578 14.3334 24.7578C12.8941 24.7578 11.7273 25.9246 11.7273 27.3639C11.7273 28.8032 12.8941 29.9699 14.3334 29.9699Z" stroke="white" stroke-width="2" stroke-linecap="round" stroke-linejoin="round"/>
<path d="M16.9395 27.3633H24.7576" stroke="white" stroke-width="2" stroke-linecap="round" stroke-linejoin="round"/>
<path d="M27.3636 29.9699C28.8029 29.9699 29.9697 28.8032 29.9697 27.3639C29.9697 25.9246 28.8029 24.7578 27.3636 24.7578C25.9243 24.7578 24.7576 25.9246 24.7576 27.3639C24.7576 28.8032 25.9243 29.9699 27.3636 29.9699Z" stroke="white" stroke-width="2" stroke-linecap="round" stroke-linejoin="round"/>
</svg>
